<svg xmlns="http://www.w3.org/2000/svg" viewBox="0 0 106.6 46" enable-background="new 0 0 106.6 46"><path fill="#999AA7" d="M.7 18.3L15 32.6c.9.9 2.4.9 3.3 0 .9-.9.9-2.4 0-3.3L5.6 16.7 18.2 4c.9-.9.9-2.4 0-3.3-.9-.9-2.4-.9-3.3 0L.7 15c-.5.5-.7 1.1-.7 1.7 0 .6.2 1.2.7 1.6zM106.6 16.7c0-.6-.2-1.2-.7-1.7L91.6.7c-.9-.9-2.4-.9-3.3 0-.9.9-.9 2.4 0 3.3L101 16.7 88.3 29.3c-.9.9-.9 2.4 0 3.3.9.9 2.4.9 3.3 0l14.3-14.3c.4-.4.7-1 .7-1.6z"/><g fill="#fff"><path d="M23.1 30.6l10-26.1h2.5L25.5 30.6h-2.4zM38.1 3.7h3.2v10.9h.1c.5-.9 1.3-1.7 2.3-2.3.9-.5 2.1-.9 3.2-.9 2.3 0 6.1 1.4 6.1 7.4v10.4h-3.2v-10c0-2.8-1-5.1-4-5.1-2.1 0-3.6 1.4-4.2 3.1-.2.5-.2.9-.2 1.5v10.5h-3.2V3.7zM58.4 29.2v-15H56v-2.4h2.4V11c0-2.4.6-4.7 2-6.1 1.2-1.2 2.8-1.6 4.2-1.6 1.2 0 2.1.3 2.7.5l-.4 2.4c-.5-.2-1.1-.4-2-.4-2.7 0-3.4 2.3-3.4 5v.9h4.2v2.4h-4.2v15h-3.1zM69.9 21.1c.1 4.3 2.8 6 6 6 2.3 0 3.7-.4 4.8-.9l.6 2.3c-1.1.5-3.1 1.1-5.8 1.1-5.4 0-8.6-3.6-8.6-8.8s3.1-9.4 8.2-9.4c5.7 0 7.2 5 7.2 8.2 0 .6 0 1.1-.1 1.5H69.9zm9.3-2.3c0-2-.8-5.1-4.4-5.1-3.2 0-4.6 2.9-4.9 5.1h9.3z"/></g><g fill="#9C9DA9"><path d="M1.2 45.9v-7.3h1.9v2.9h2.4v-2.9h1.9v7.3h-2V43H3.1v2.9H1.2zM8.6 45.9l2.9-7.3h1.8l2.9 7.3h-2l-.6-1.8h-2.4l-.6 1.8h-2zm3.1-3.1h1.5l-.7-2.3-.8 2.3zM17.5 45.9v-7.3h3c.9 0 1.6.2 2.1.7.5.5.7 1.1.7 1.9 0 .8-.2 1.4-.7 1.9-.5.4-1.2.7-2.1.7h-1.1V46h-1.9zm1.9-3.7h.9c.4 0 .7-.1.8-.3.2-.2.3-.4.3-.7 0-.3-.1-.5-.3-.7-.2-.2-.5-.3-.8-.3h-.9v2zM24.6 45.9v-7.3h3c.9 0 1.6.2 2.1.7.5.5.7 1.1.7 1.9 0 .8-.2 1.4-.7 1.9-.5.4-1.2.7-2.1.7h-1.1V46h-1.9zm1.9-3.7h.9c.4 0 .7-.1.8-.3.2-.2.3-.4.3-.7 0-.3-.1-.5-.3-.7-.2-.2-.5-.3-.8-.3h-.9v2zM31 38.6h2.3l1.6 2.8 1.6-2.8h2.3l-2.9 4.2v3.1H34v-3.1l-3-4.2zM43.5 45.9v-7.3h5v1.5h-3.1v1.5h2.7v1.5h-2.7v2.8h-1.9zM49.8 45.9v-7.3h2.9c.9 0 1.6.2 2.1.6.5.4.8 1 .8 1.8 0 .6-.1 1.1-.4 1.4-.3.4-.6.6-1.1.8l1.8 2.7h-2.1l-1.4-2.4h-.8v2.4h-1.8zm1.9-3.8h1.1c.3 0 .5-.1.7-.3.2-.2.3-.4.3-.7 0-.3-.1-.5-.3-.7-.2-.2-.4-.3-.7-.3h-1.1v2zM57.1 43.8c-.1-.5-.2-1-.2-1.6 0-.6.1-1.1.2-1.6s.3-.8.5-1.1.5-.5.8-.7c.3-.2.6-.3.9-.3.3-.1.6-.1 1-.1s.7 0 1 .1c.3.1.6.2.9.3.3.2.6.4.8.7s.4.6.5 1.1c.1.5.2 1 .2 1.6 0 .6-.1 1.1-.2 1.6s-.3.8-.5 1.1c-.2.3-.5.5-.8.7-.3.2-.6.3-.9.3-.3.1-.6.1-.9.1s-.7 0-1-.1c-.3-.1-.6-.2-.9-.3-.3-.2-.6-.4-.8-.7-.2-.2-.4-.6-.6-1.1zm2.2-3.2c-.3.3-.4.9-.4 1.7 0 .8.1 1.4.4 1.7.3.3.7.5 1.1.5s.8-.2 1.1-.5c.3-.3.4-.9.4-1.7 0-.8-.1-1.4-.4-1.7-.3-.3-.7-.5-1.1-.5s-.9.2-1.1.5zM65.3 45.9v-7.3h1.9l3 4.4v-4.4h1.9v7.3h-1.9l-3-4.4v4.4h-1.9zM73.4 40.2v-1.6h6.1v1.6h-2.1v5.7h-1.9v-5.7h-2.1zM84.3 45.9v-7.3h5.1v1.5h-3.2v1.4H89V43h-2.8v1.4h3.2v1.5h-5.1zM90.9 45.9v-7.3h1.9l3 4.4v-4.4h1.9v7.3h-1.9l-3-4.4v4.4h-1.9zM99.5 45.9v-7.3h2.6c1.1 0 2 .3 2.6.9.6.6.9 1.5.9 2.7 0 1.2-.3 2.1-.9 2.7-.6.6-1.5.9-2.6.9h-2.6zm1.9-1.5h.8c1.1 0 1.6-.7 1.6-2.1 0-1.4-.5-2.1-1.6-2.1h-.8v4.2z"/></g></svg>