<svg xmlns="http://www.w3.org/2000/svg" viewBox="0 0 54 54" enable-background="new 0 0 54 54"><circle fill="#31ACE3" cx="27" cy="27" r="27"/><g fill="#F8F8F8"><path d="M21.873 31.329c2.497 0 4.256-1.781 4.256-4.267 0-2.462-1.759-4.221-4.256-4.221-2.486 0-4.256 1.759-4.256 4.221 0 2.486 1.77 4.267 4.256 4.267zm0-7c1.453 0 2.462 1.091 2.462 2.732 0 1.676-1.021 2.767-2.462 2.767-1.431 0-2.451-1.09-2.451-2.767 0-1.64 1.009-2.732 2.451-2.732zM40.503 29.782c-.821 0-1.689-.305-2.415-.738l-.844 1.383c.786.493 2.04.902 3.271.902 2.111 0 3.166-1.079 3.166-2.462 0-3.166-4.432-2.098-4.432-3.611 0-.493.469-.868 1.254-.868.727 0 1.489.176 2.216.539l.657-1.396c-.915-.433-1.876-.691-2.955-.691-1.9 0-3.013 1.09-3.013 2.438 0 3.107 4.432 2.075 4.432 3.612-.001.529-.458.892-1.337.892zM12.418 31.329c1.712 0 2.803-.973 2.803-2.849v-5.499h-1.771v5.464c0 .844-.411 1.325-1.126 1.325-.586 0-1.02-.351-1.337-.926l-1.337.868c.623 1.043 1.573 1.617 2.768 1.617zM35.233 28.844c0-1.008-.634-1.618-1.536-1.911.762-.328 1.231-.891 1.231-1.747 0-1.278-.915-2.204-2.896-2.204h-3.447v8.207h3.612c1.851 0 3.036-.833 3.036-2.345zm-4.89-4.444h1.548c.832 0 1.255.411 1.255.985 0 .609-.423 1.02-1.255 1.02h-1.548v-2.005zm0 5.37v-2.122h1.818c.786 0 1.301.351 1.301 1.043 0 .715-.504 1.079-1.301 1.079h-1.818z"/></g></svg>